<svg version="1" xmlns="http://www.w3.org/2000/svg" width="682.667" height="682.667"
     viewBox="0 0 512.000000 512.000000">
    <path d="M236.1 1C159.4 7.4 90.2 47.1 46.5 109.5-.4 176.6-12.4 262.9 14.5 340c41.2 117.9 162.2 189.3 284.8 168 91.8-16 167.7-80.3 198.1-167.9 32.6-93.8 7.8-198.6-63.1-267.1-41-39.7-92.3-64.3-148-70.9C273.9.6 247.8 0 236.1 1zm46.4 9.1c29.9 2.7 63.6 13.3 92.2 28.8 43.2 23.5 79.1 60.5 101.6 104.8 6.2 12.1 11.7 24.7 11.7 26.5 0 .4-35.2.8-78.2.8h-78.2l-8.1-4c-9.9-4.9-20.9-8.4-32.8-10.7-13.2-2.5-49.8-2.5-61.4 0-11.2 2.4-22.3 6.2-31.5 10.8L190 171h-83c-45.6 0-83-.4-83-.8 0-2.6 11.3-26.9 17.8-38.2 7.9-13.8 21-31.5 32-43.2C96.2 64.7 118 48.5 147 34.1c42.3-21 85.4-28.6 135.5-24zm4.1 159.4c25.1 4.4 45.3 15.3 57.9 31.3C364 225.4 373 257.5 373 301.9c0 49.1-13.3 86.4-39.7 111.2-13.4 12.6-27.8 20.5-47.2 25.7-9 2.4-11.1 2.6-32.6 2.6-18.8.1-24.5-.2-31.3-1.7-22.8-5-38.6-13.7-52.5-28.6-7.1-7.8-10.5-12.7-15.5-22.7-10.7-21.4-15.2-44.9-15.2-79.8 0-57.4 18-99 52.7-122.2 14.3-9.6 32.1-16.1 50.3-18.3 9.9-1.3 33.4-.5 44.6 1.4zM127.4 344.2c3.6 22.2 7.4 35.4 14.1 48.9 6.1 12.4 11.7 20.3 21.4 30 22.6 22.7 49.3 32.2 90.1 32.3 31.1 0 51.5-5.5 73.5-19.8 27.6-18 47.6-49.2 55.2-86l1.8-8.6h105.4l-3.2 7.7c-12.1 29.9-31.4 59-54.7 82.3-37.9 37.9-85.6 61.9-139.5 70.1-19.8 3.1-51.2 3.1-71 0-71.6-10.9-133-50.4-172.7-111.1-6.9-10.4-17.4-30.7-22.2-42.8l-2.5-6.2h103.8l.5 3.2z"/>
    <path d="M194 57.6c-10.3 2.2-16.4 4.4-26.3 9.3l-9.2 4.6-.3 26c-.1 14.3 0 26.5.2 27.1.3.9 3.3.4 10.3-1.7 13.2-3.9 31.2-6.9 41.4-6.9 11.4 0 22.3 1.5 40.8 5.5 37.3 8.1 60.9 7.1 81.8-3.3 13.9-6.9 12.3-2.6 12.3-33.9 0-15-.4-27.3-.8-27.3s-4.6 1.3-9.3 3c-12.4 4.3-21.8 6.1-35.4 6.7-14.4.7-27.1-.7-45.5-4.8-25.8-5.8-46.4-7.3-60-4.3zm38.5 13.9c5 .8 13.8 2.5 19.5 3.9 16.1 3.8 26.1 4.9 42.5 4.9 11.1-.1 17.7-.6 25.5-2.2 5.8-1.1 10.8-2.1 11.3-2.1.4 0 .7 6.2.7 13.9v13.8l-7.1 3.2c-10.5 4.7-17.7 6.1-32.2 6.1-14.5 0-20.8-.8-42.7-5.5-17.7-3.9-37.2-5.9-46.9-5-8.6.9-28.8 4.2-30.1 5-.6.4-1-4.4-1-13.8V79.4l7.8-3.2c4.2-1.7 10.2-3.8 13.2-4.6 7.3-1.9 28.1-2 39.5-.1zM237 202.4c-19.1 5.3-31.7 20.4-37.9 45.3-3.8 15.5-4.6 24.8-4.6 55.8 0 31.1.7 39.2 4.6 54.3 5.6 21.3 17 37.6 31.2 44.9 11 5.5 27.9 7.7 40.8 5.3 17.7-3.4 31.5-16.5 38.9-36.7 5.3-14.7 7.2-28.5 7.7-56.3 1-51.2-6.2-80.9-24.1-98.5-11.7-11.6-22.4-15.6-41.1-15.4-6 0-13 .6-15.5 1.3zm65.5 143.3c-1.3 9.2-4.7 20.8-8.2 28-8.1 16.7-23.3 24.3-43 21.4-14.1-2-24.4-9-31.7-21.5-3-5.2-8.1-19.8-9.4-27.4l-.9-5.2h93.9l-.7 4.7z"/>
</svg>